PathFileType	4	(X/Y/Z)	C:\Users\WrightLab\Desktop\Jo\P5V41.trc
DataRate	CameraRate	NumFrames	NumMarkers	Units	OrigDataRate	OrigDataStartFrame	OrigNumFrames
100.00	100.00	      22	19	mm	100.00	286	      1140
Frame#	Time	Headset_Front			Headset_Back			Headset_Left			Headset_Right			Left_Shoulder			Right_Shoulder			Sternum			C7			Left Elbow			Right Elbow			Left Wrist			Right Wrist			Left ASIS			Right ASIS			S2			Left Knee			Right Knee			Left Ankle			Right Ankle			
		X1	Y1	Z1	X2	Y2	Z2	X3	Y3	Z3	X4	Y4	Z4	X5	Y5	Z5	X6	Y6	Z6	X7	Y7	Z7	X8	Y8	Z8	X9	Y9	Z9	X10	Y10	Z10	X11	Y11	Z11	X12	Y12	Z12	X13	Y13	Z13	X14	Y14	Z14	X15	Y15	Z15	X16	Y16	Z16	X17	Y17	Z17	X18	Y18	Z18	X19	Y19	Z19	

286	2.850				-353.84610	1472.41064	-1165.49353																						-450.48871	1131.80237	-1124.74829				-316.93427	1104.42993	-919.75598				-282.41656	886.58337	-1235.72131							-267.92746	471.72595	-1200.20630							
287	2.860				-353.99142	1471.62109	-1158.73828																						-448.68695	1130.87329	-1118.56970				-316.30139	1103.59021	-913.28851				-279.89230	887.24396	-1229.08765							-265.77222	472.08591	-1198.03040							
288	2.870				-354.01440	1471.17639	-1152.15417																						-446.39401	1129.25269	-1114.09753				-315.80652	1103.75720	-907.51202				-274.84048	889.46008	-1221.59521							-264.98120	474.45578	-1195.23779							
289	2.880				-354.27921	1470.76294	-1146.01233																						-444.97281	1128.53772	-1108.13867				-312.86566	1101.37866	-901.31189				-272.72021	889.78857	-1217.99744							-263.97751	476.30743	-1191.68872							
290	2.890				-354.27838	1470.10779	-1138.10266													-266.91226	1675.11462	-1219.20972							-443.16977	1127.60645	-1102.67944				-312.19342	1099.41016	-895.78467				-269.71713	891.98566	-1213.26074							-262.23584	477.39050	-1187.82751							
291	2.900				-354.41562	1469.99072	-1132.14929													-267.22189	1675.31995	-1211.24048							-440.45157	1125.82605	-1097.88745				-309.97382	1097.45386	-890.81702				-265.23560	894.57349	-1205.76160							-260.93884	478.32431	-1184.81091							
292	2.910				-354.57385	1469.57104	-1125.32507													-267.36932	1675.82825	-1203.16309							-438.92499	1125.33325	-1092.66101				-309.02304	1096.23572	-884.34979				-263.08667	894.86737	-1200.49390							-260.01962	478.78290	-1181.69336							
293	2.920				-354.70099	1469.35132	-1118.56323													-267.76862	1675.78943	-1195.85974							-436.31744	1125.27747	-1087.63647				-307.67227	1095.21326	-879.70465				-260.40295	896.05011	-1197.23755							-260.02652	478.86728	-1178.28760							
294	2.930				-354.95694	1468.73657	-1112.38684													-267.79587	1675.87891	-1187.55896							-435.44144	1123.81641	-1081.92896				-306.95575	1093.07080	-874.03473				-255.96394	897.00366	-1189.67566							-259.23917	479.47977	-1175.10986							
295	2.940				-354.95053	1468.59058	-1105.95117													-267.91080	1676.02710	-1179.74255							-433.01736	1122.07776	-1077.04187				-305.96341	1091.77405	-868.71301				-253.83234	898.29138	-1182.07861							-258.72559	480.01950	-1171.63062							
296	2.950				-354.95892	1467.93518	-1099.07019													-267.98474	1675.99695	-1172.34192							-431.66168	1121.37720	-1072.40491				-305.06036	1089.76147	-864.26318				-251.51102	899.39502	-1177.31689							-259.01660	479.05157	-1167.82971							
297	2.960				-354.98242	1467.62781	-1092.97815													-267.87247	1675.99963	-1164.91064							-430.14932	1120.75159	-1067.71802				-303.42511	1088.25269	-858.07239				-247.54848	899.94678	-1172.16064							-258.96030	478.71680	-1165.08093							
298	2.970				-354.90912	1467.34497	-1086.92603													-267.76910	1675.91223	-1157.91492							-427.84082	1119.18481	-1061.97412				-302.20554	1086.84021	-853.31775				-244.60724	899.89520	-1166.55481							-259.59305	478.78766	-1162.28491							
299	2.980				-354.73840	1467.16870	-1080.97998													-267.56274	1675.85999	-1150.87585							-425.60141	1118.79504	-1057.88672				-300.73523	1084.14490	-847.16223				-241.87636	900.03052	-1159.81396							-259.51151	478.03625	-1159.36902							
300	2.990				-354.50656	1466.41687	-1074.46143													-267.19238	1675.48218	-1142.97595							-424.55872	1116.82007	-1052.53491				-300.15164	1082.63074	-842.76312				-239.58707	899.83118	-1155.90527				-83.65488	454.42661	-1364.30188	-261.43158	476.58359	-1155.71399							
301	3.000				-354.03848	1466.05176	-1067.81165													-266.85492	1675.40833	-1136.71252							-422.27548	1115.73584	-1047.50952				-296.54214	1080.36499	-836.93127				-236.16031	900.63995	-1151.49500				-74.96348	455.79526	-1360.82043	-261.48849	476.04993	-1153.53162							
302	3.010				-353.54642	1465.73877	-1062.13147													-266.42847	1675.00537	-1129.47754							-420.29285	1114.57813	-1043.07190				-295.61038	1077.60217	-832.70990				-234.38106	899.60461	-1145.10803				-66.61382	458.87143	-1349.38330	-261.66669	475.39905	-1150.30298							
303	3.020				-353.02136	1465.10364	-1056.36450													-265.93521	1674.76318	-1122.94629							-417.95288	1112.68225	-1038.13525				-294.07510	1075.58716	-826.54767				-232.95782	899.47577	-1143.40210				-55.90600	457.42725	-1348.46802	-262.13837	474.75153	-1146.63684							
304	3.030				-352.18442	1464.53979	-1050.05627													-265.51343	1674.33167	-1116.98230							-416.10010	1111.04578	-1033.47266	76.47919	959.22247	-1333.65991	-292.80457	1073.96423	-822.37585				-229.21931	899.39972	-1136.59790				-47.38301	457.26144	-1342.64429	-262.40256	474.67877	-1143.88135							
305	3.040				-351.41574	1463.81580	-1044.03406										-392.59946	1364.97522	-1130.93799	-264.95316	1674.05286	-1110.80334							-414.37247	1109.19080	-1028.66284	79.57664	961.29565	-1327.38086	-292.12344	1071.69470	-816.59552				-227.38084	899.44672	-1133.00146				-38.39322	457.79428	-1330.35474	-263.43228	474.95041	-1140.45764							
306	3.050				-350.63293	1463.15112	-1038.31665										-390.83347	1363.73364	-1125.23669	-264.33984	1673.74255	-1104.55505							-411.83356	1107.95898	-1024.58655	83.96919	961.20093	-1324.87939	-288.89316	1069.30029	-812.80756	-11.71677	919.19037	-1315.19397	-226.00551	899.22906	-1128.91553				-26.86568	453.63724	-1328.42859	-264.61520	474.99463	-1137.32642							
307	3.060				-349.79620	1462.66968	-1033.26660										-389.73029	1363.38745	-1120.05652	-263.52155	1673.50928	-1097.94885							-409.39569	1107.34302	-1020.42218	86.89896	962.86517	-1319.66650	-288.49573	1067.69385	-808.72107	-8.42865	921.50061	-1306.45898	-224.19298	898.23486	-1122.65430				-17.83599	454.12579	-1317.50635	-264.26678	475.90530	-1133.99573							
